# xmcd CD database file
#
# Track frame offsets:
#	150
#	14798
#	38481
#	50346
#	66302
#	85657
#	99600
#	115758
#	126784
#	142615
#	154806
#	170400
#	183287
#	206015
#
# Disc length: 3009 seconds
#
# Revision: 1
# Processed by: cddbd v1.4PL0 Copyright (c) Steve Scherf et al.
# Submitted via: CDex 1.40Release
#
DISCID=b50bbf0e
DTITLE=B. B. King - B. B. Boogie
DYEAR=1968
DGENRE=Blues
TTITLE0=B. B. Boogie
TTITLE1=You've Done Lost Your Good Thing Now
TTITLE2=Paying The Cost To The Boss
TTITLE3=Long Nights
TTITLE4=Sweet 16
TTITLE5=Save A Seat For Me
TTITLE6=It's My Own Fault Baby
TTITLE7=Catfish Blues
TTITLE8=The Letter
TTITLE9=Please Love Me
TTITLE10=Walkin' And Cryin'
TTITLE11=I'm Working on The Building
TTITLE12=Every Day (I Have The Blues)
TTITLE13=How Blue Can You Gett
EXTD=YEAR: 1968 ID3G: 0
EXTT0=
EXTT1=
EXTT2=
EXTT3=
EXTT4=
EXTT5=
EXTT6=
EXTT7=
EXTT8=
EXTT9=
EXTT10=
EXTT11=
EXTT12=
EXTT13=
PLAYORDER=
